<?xml version="1.0" encoding="utf-8"?>
<!-- Generator: Adobe Illustrator 23.0.3, SVG Export Plug-In . SVG Version: 6.00 Build 0)  -->
<svg version="1.1" id="Layer_1" xmlns="http://www.w3.org/2000/svg" xmlns:xlink="http://www.w3.org/1999/xlink" x="0px" y="0px"
	 viewBox="0 0 218 66" style="enable-background:new 0 0 218 66;" xml:space="preserve">
<style type="text/css">
	.st0{fill:#89BB40;}
	.st1{fill:#23B3E4;}
	.st2{fill:#FFFFFF;}
</style>
<g id="q_color">
	<rect x="25.4" y="4.9" class="st0" width="8.1" height="58.2"/>
	<path class="st1" d="M21.7,4.9c0,0-12.5,0-17,0C2.7,4.9,1,6.1,1,8.6c0,8.7,0,28.7,0,28.7c0,2.6,1.6,3.7,3.7,3.7c4.1,0,17,0,17,0
		v-8.1c0,0-7.2,0-8.8,0c-2.1,0-3.7-1.1-3.7-3.7c0-3,0-8.9,0-12.5c0-2.6,1.6-3.7,3.7-3.7c1.7,0,8.8,0,8.8,0"/>
</g>
<g id="Font_black">
	<path class="st2" d="M66.7,23.2c0,2.5-0.3,4.7-0.8,6.4s-1.5,3.2-2.9,4.5c-2.3,2.2-5.4,3.3-9.2,3.3c-3.8,0-6.8-1.1-9.1-3.3
		c-1.4-1.3-2.3-2.8-2.8-4.5c-0.5-1.7-0.8-3.8-0.8-6.4c0-2.5,0.3-4.6,0.8-6.3c0.5-1.7,1.5-3.2,2.8-4.5c0.7-0.6,1.4-1.2,2.3-1.7
		c0.9-0.5,1.9-0.9,3.1-1.2c1.2-0.3,2.4-0.4,3.7-0.4c2,0,3.8,0.3,5.3,0.9c1.5,0.6,2.8,1.4,3.8,2.4c1.4,1.3,2.3,2.8,2.8,4.5
		C66.4,18.6,66.7,20.7,66.7,23.2z M60.5,23.2c0-1.8-0.1-3.3-0.4-4.5c-0.3-1.2-0.8-2.2-1.7-3c-1.1-1-2.6-1.6-4.5-1.6
		c-1.8,0-3.3,0.5-4.5,1.6c-0.8,0.8-1.4,1.8-1.7,3c-0.3,1.2-0.4,2.7-0.4,4.5c0,1.8,0.1,3.3,0.4,4.5c0.3,1.2,0.8,2.2,1.7,3
		c1.2,1.1,2.7,1.6,4.5,1.6c1.8,0,3.3-0.5,4.5-1.6c0.9-0.8,1.4-1.8,1.7-3S60.5,25,60.5,23.2z"/>
	<path class="st2" d="M99.8,37h-6.2V20.2c0-1.4-0.3-2.5-0.8-3.4c-0.5-0.9-1.3-1.6-2.2-2s-2-0.6-3.2-0.6c-1.8,0-3.4,0.5-4.6,1.6
		s-1.8,2.6-1.8,4.6V37H75V9.5h6v2.8c1-1,2.2-1.8,3.7-2.3s2.9-0.8,4.4-0.8c3.1,0,5.6,0.8,7.5,2.5c2.1,1.8,3.1,4.4,3.1,7.7L99.8,37
		L99.8,37z"/>
	<path class="st2" d="M131.4,33.4c-0.9,0.9-1.9,1.6-2.9,2.2c-1,0.6-2.1,1-3.3,1.3c-1.2,0.3-2.4,0.4-3.9,0.4c-2.4,0-4.6-0.5-6.7-1.4
		c-2.1-1-3.7-2.5-5-4.6c-1.3-2.1-1.9-4.8-1.9-8.1c0-2.5,0.4-4.6,1.1-6.4c0.7-1.8,1.8-3.3,3-4.4c1.3-1.1,2.7-2,4.4-2.5
		c1.6-0.5,3.3-0.8,5.1-0.8c2.2,0,4,0.3,5.6,0.9c1.6,0.6,3.1,1.6,4.5,3l-4.2,3.7c-0.9-1-1.8-1.6-2.7-2c-0.9-0.4-1.9-0.6-3.2-0.6
		c-2.4,0-4.3,0.8-5.7,2.4c-0.7,0.8-1.1,1.7-1.4,2.7c-0.3,1-0.4,2.4-0.4,4c0,3.1,0.6,5.3,1.8,6.7c1.4,1.6,3.3,2.4,5.7,2.4
		c1.2,0,2.2-0.2,3.1-0.6s1.8-1.1,2.7-2L131.4,33.4z"/>
	<path class="st2" d="M162.9,24.8H143c0,1.6,0.3,3,0.9,4.1c0.6,1.1,1.5,2,2.6,2.7c1.1,0.6,2.6,0.9,4.3,0.9c1.7,0,3.1-0.2,4.1-0.6
		c1-0.4,2.1-1.1,3.3-2.2l3.9,3.3c-1.7,1.5-3.4,2.6-5.1,3.3s-3.8,1-6.4,1c-2,0-3.8-0.3-5.5-0.8c-1.7-0.5-3.1-1.3-4.4-2.4
		c-1.2-1.1-2.2-2.6-2.9-4.4c-0.7-1.8-1-4-1-6.5c0-3,0.5-5.5,1.6-7.6s2.6-3.7,4.5-4.8c1.9-1.1,4.2-1.7,6.8-1.7c2.7,0,5,0.6,7,1.7
		s3.5,2.7,4.5,4.7c1,2,1.5,4.3,1.5,6.9L162.9,24.8L162.9,24.8z M156.8,21c-0.1-1.4-0.3-2.7-0.8-3.7c-0.5-1.1-1.3-1.9-2.3-2.5
		c-1.1-0.6-2.3-1-3.7-1c-1.4,0-2.7,0.3-3.7,1c-1.1,0.6-1.9,1.5-2.4,2.5c-0.3,0.6-0.5,1.1-0.5,1.5c-0.1,0.4-0.2,1.2-0.2,2.2
		C143,21,156.8,21,156.8,21z"/>
	<path class="st2" d="M196.1,23.2c0,1.7-0.1,3.3-0.2,4.6c-0.2,1.3-0.5,2.6-1,3.9c-0.5,1.3-1.3,2.3-2.2,3.2c-0.8,0.8-1.9,1.4-3.2,1.8
		c-1.3,0.4-2.7,0.7-4.2,0.7c-1.7,0-3.2-0.2-4.5-0.7s-2.5-1.3-3.5-2.4v14H171V9.5h6v2.9c1.1-1.2,2.3-2.1,3.6-2.6
		c1.3-0.5,2.8-0.7,4.5-0.7c1.5,0,3,0.2,4.3,0.7c1.3,0.4,2.4,1,3.2,1.8c0.9,0.8,1.7,1.9,2.2,3.1c0.5,1.2,0.9,2.5,1,3.9
		C196,19.9,196.1,21.5,196.1,23.2z M189.9,23.2c0-1.9-0.2-3.5-0.5-4.8c-0.3-1.3-0.9-2.4-1.9-3.2c-0.9-0.8-2.3-1.2-4-1.2
		c-1.7,0-3.1,0.4-4,1.2c-0.9,0.8-1.6,1.8-1.9,3.2s-0.5,2.9-0.5,4.8s0.2,3.5,0.5,4.8c0.3,1.3,0.9,2.4,1.9,3.2s2.3,1.2,4,1.2
		c2.5,0,4.2-0.8,5.1-2.4C189.5,28.3,189.9,26.1,189.9,23.2z"/>
	<path class="st2" d="M217.2,37h-3.7c-1.8,0-3.3-0.4-4.6-1.1c-1.3-0.7-2.2-1.6-2.8-2.8s-0.9-2.4-0.9-3.8V14.2h-3.5V9.9h3.5V1.6h6.2
		v8.4h5.9v4.2h-5.9v14.9c0,2.1,1.1,3.2,3.4,3.2h2.5L217.2,37L217.2,37z"/>
</g>
<g id="Slogan_black">
	<path class="st2" d="M45.9,63.2h-1.3v-0.7c-0.2,0.2-0.3,0.4-0.5,0.5s-0.3,0.2-0.5,0.2s-0.4,0.1-0.7,0.1c-0.3,0-0.6-0.1-0.9-0.2
		s-0.5-0.2-0.7-0.4c-0.2-0.2-0.4-0.5-0.5-0.8c-0.1-0.3-0.2-0.6-0.2-0.9s0-0.7,0-1.1s0-0.8,0-1.1c0-0.3,0.1-0.6,0.2-0.9
		s0.3-0.5,0.5-0.8c0.2-0.2,0.4-0.3,0.7-0.4c0.3-0.1,0.6-0.2,0.9-0.2c0.4,0,0.7,0.1,0.9,0.2c0.3,0.1,0.5,0.3,0.7,0.6V54h1.3V63.2z
		 M44.6,59.9c0-0.4,0-0.8-0.1-1.1c-0.1-0.3-0.2-0.6-0.4-0.8c-0.2-0.2-0.5-0.3-0.8-0.3c-0.4,0-0.6,0.1-0.8,0.3s-0.3,0.4-0.4,0.8
		C42,59.1,42,59.5,42,59.9c0,0.4,0,0.8,0.1,1.1c0.1,0.3,0.2,0.6,0.4,0.8c0.2,0.2,0.5,0.3,0.8,0.3c0.5,0,0.9-0.2,1.1-0.6
		C44.5,61.2,44.6,60.6,44.6,59.9z"/>
	<path class="st2" d="M49.3,55.3h-1.4v-1.4h1.4V55.3z M49.2,63.2h-1.3v-6.6h1.3V63.2z"/>
	<path class="st2" d="M56.1,63.2c0,0.5-0.1,1-0.3,1.4c-0.2,0.4-0.5,0.7-0.9,1C54.4,65.9,54,66,53.4,66c-0.3,0-0.6,0-0.9-0.1
		c-0.3-0.1-0.5-0.2-0.7-0.3s-0.4-0.3-0.7-0.5l0.8-0.8c0.2,0.2,0.4,0.4,0.6,0.4c0.2,0.1,0.5,0.1,0.7,0.1c0.5,0,0.9-0.2,1.1-0.5
		s0.4-0.7,0.4-1.2v-0.8c-0.2,0.3-0.5,0.5-0.7,0.6c-0.3,0.1-0.6,0.2-0.9,0.2c-0.3,0-0.6-0.1-0.9-0.2c-0.3-0.1-0.5-0.2-0.7-0.4
		c-0.3-0.3-0.5-0.7-0.6-1.1s-0.1-1-0.1-1.6c0-0.6,0-1.2,0.1-1.6c0.1-0.4,0.3-0.8,0.6-1.1c0.2-0.2,0.4-0.3,0.7-0.4
		c0.3-0.1,0.6-0.1,0.9-0.1c0.4,0,0.7,0.1,0.9,0.2c0.3,0.1,0.5,0.3,0.7,0.6v-0.7h1.2L56.1,63.2L56.1,63.2z M54.8,59.8
		c0-0.6-0.1-1.1-0.3-1.5c-0.2-0.4-0.5-0.6-1-0.6c-0.5,0-0.9,0.2-1,0.6c-0.2,0.4-0.3,0.9-0.3,1.5s0.1,1.1,0.3,1.5
		c0.2,0.4,0.5,0.6,1,0.6c0.5,0,0.9-0.2,1-0.6C54.8,60.9,54.8,60.4,54.8,59.8z"/>
	<path class="st2" d="M59.5,55.3h-1.4v-1.4h1.4V55.3z M59.5,63.2h-1.3v-6.6h1.3V63.2z"/>
	<path class="st2" d="M64.2,63.2h-0.8c-0.4,0-0.7-0.1-1-0.3s-0.5-0.4-0.6-0.7c-0.1-0.3-0.2-0.6-0.2-0.9v-3.6h-0.7v-1h0.7v-2h1.3v2
		h1.2v1h-1.2v3.6c0,0.5,0.2,0.8,0.7,0.8h0.5V63.2z"/>
	<path class="st2" d="M70.5,63.2h-1.3v-0.6c-0.2,0.2-0.5,0.4-0.7,0.5c-0.3,0.1-0.6,0.2-1,0.2c-0.4,0-0.7,0-1-0.1
		c-0.3-0.1-0.5-0.2-0.7-0.4c-0.3-0.4-0.5-0.8-0.5-1.4c0-0.4,0.1-0.7,0.3-1c0.2-0.3,0.4-0.5,0.7-0.7c0.3-0.2,0.7-0.2,1.2-0.2h1.7
		v-0.5c0-0.4-0.1-0.7-0.3-0.9s-0.6-0.3-1.1-0.3c-0.4,0-0.6,0-0.8,0.1s-0.4,0.3-0.6,0.5l-0.8-0.8c0.3-0.4,0.6-0.6,1-0.7
		c0.3-0.1,0.8-0.2,1.3-0.2c1.8,0,2.6,0.8,2.6,2.3L70.5,63.2L70.5,63.2z M69.2,60.8v-0.5h-1.5c-0.4,0-0.7,0.1-0.9,0.2
		c-0.2,0.2-0.3,0.4-0.3,0.7c0,0.6,0.4,0.9,1.2,0.9c0.3,0,0.5,0,0.7-0.1c0.2,0,0.4-0.1,0.5-0.3C69.1,61.6,69.2,61.3,69.2,60.8z"/>
	<path class="st2" d="M75,63.2h-0.8c-0.6,0-1-0.2-1.3-0.5c-0.3-0.3-0.4-0.8-0.4-1.3V54h1.3v7.4c0,0.3,0.1,0.5,0.2,0.6
		s0.3,0.2,0.5,0.2H75V63.2z"/>
	<path class="st2" d="M88.5,63.2h-1.3v-4c0-0.5-0.1-0.9-0.4-1.1c-0.2-0.2-0.5-0.4-0.9-0.4c-0.4,0-0.7,0.1-0.9,0.4s-0.4,0.6-0.4,1
		v4.1h-1.3v-4c0-0.3-0.1-0.6-0.2-0.8c-0.1-0.2-0.3-0.4-0.5-0.5s-0.4-0.2-0.7-0.2c-0.4,0-0.7,0.1-0.9,0.4c-0.2,0.2-0.4,0.6-0.4,1.1v4
		h-1.3v-6.6h1.3v0.7c0.2-0.2,0.5-0.4,0.8-0.6c0.3-0.1,0.6-0.2,0.9-0.2c0.8,0,1.4,0.3,1.8,1c0.5-0.6,1.2-1,2-1c0.7,0,1.2,0.2,1.6,0.6
		c0.4,0.4,0.7,1.1,0.7,1.9L88.5,63.2L88.5,63.2z"/>
	<path class="st2" d="M95.1,63.2h-1.3v-0.6c-0.2,0.2-0.5,0.4-0.7,0.5c-0.3,0.1-0.6,0.2-1,0.2c-0.4,0-0.7,0-1-0.1
		c-0.3-0.1-0.5-0.2-0.7-0.4c-0.3-0.4-0.5-0.8-0.5-1.4c0-0.4,0.1-0.7,0.3-1c0.2-0.3,0.4-0.5,0.7-0.7c0.3-0.2,0.7-0.2,1.2-0.2h1.7
		v-0.5c0-0.4-0.1-0.7-0.3-0.9s-0.6-0.3-1.1-0.3c-0.4,0-0.6,0-0.8,0.1s-0.4,0.3-0.6,0.5l-0.8-0.8c0.3-0.4,0.6-0.6,1-0.7
		c0.3-0.1,0.8-0.2,1.3-0.2c1.8,0,2.6,0.8,2.6,2.3L95.1,63.2L95.1,63.2z M93.8,60.8v-0.5h-1.5c-0.4,0-0.7,0.1-0.9,0.2
		c-0.2,0.2-0.3,0.4-0.3,0.7c0,0.6,0.4,0.9,1.2,0.9c0.3,0,0.5,0,0.7-0.1c0.2,0,0.4-0.1,0.5-0.3C93.7,61.6,93.8,61.3,93.8,60.8z"/>
	<path class="st2" d="M102.3,63.2H101v-4c0-0.3-0.1-0.6-0.2-0.8c-0.1-0.2-0.3-0.4-0.5-0.5s-0.4-0.2-0.7-0.2c-0.4,0-0.7,0.1-0.9,0.4
		c-0.2,0.2-0.4,0.6-0.4,1.1v4h-1.3v-6.6h1.3v0.7c0.2-0.2,0.5-0.4,0.8-0.6c0.3-0.1,0.6-0.2,0.9-0.2c0.7,0,1.2,0.2,1.6,0.6
		c0.4,0.4,0.6,1,0.6,1.9L102.3,63.2L102.3,63.2z"/>
	<path class="st2" d="M109.3,63.2h-1.3v-0.7c-0.2,0.2-0.5,0.4-0.8,0.5c-0.3,0.1-0.6,0.2-0.9,0.2c-0.6,0-1.2-0.2-1.6-0.6
		c-0.2-0.2-0.4-0.5-0.5-0.8c-0.1-0.3-0.1-0.7-0.1-1v-4.2h1.3v4c0,0.5,0.1,0.9,0.4,1.1c0.2,0.2,0.5,0.4,0.9,0.4
		c0.4,0,0.7-0.1,0.9-0.4c0.2-0.2,0.4-0.6,0.4-1.1v-4h1.3L109.3,63.2L109.3,63.2z"/>
	<path class="st2" d="M114.1,57.8h-1.3v5.5h-1.3v-5.5h-0.7v-1h0.7v-1c0-0.3,0.1-0.6,0.2-0.9s0.3-0.5,0.6-0.7c0.3-0.2,0.6-0.3,1-0.3
		h0.8V55h-0.6c-0.5,0-0.7,0.3-0.7,0.8v0.9h1.3L114.1,57.8L114.1,57.8z"/>
	<path class="st2" d="M120.2,63.2H119v-0.6c-0.2,0.2-0.5,0.4-0.7,0.5c-0.3,0.1-0.6,0.2-1,0.2c-0.4,0-0.7,0-1-0.1
		c-0.3-0.1-0.5-0.2-0.7-0.4c-0.3-0.4-0.5-0.8-0.5-1.4c0-0.4,0.1-0.7,0.3-1c0.2-0.3,0.4-0.5,0.7-0.7c0.3-0.2,0.7-0.2,1.2-0.2h1.7
		v-0.5c0-0.4-0.1-0.7-0.3-0.9c-0.2-0.2-0.6-0.3-1.1-0.3c-0.4,0-0.6,0-0.8,0.1c-0.2,0.1-0.4,0.3-0.6,0.5l-0.8-0.8
		c0.3-0.4,0.6-0.6,1-0.7c0.3-0.1,0.8-0.2,1.3-0.2c1.8,0,2.6,0.8,2.6,2.3C120.2,58.8,120.2,63.2,120.2,63.2z M118.9,60.8v-0.5h-1.5
		c-0.4,0-0.7,0.1-0.9,0.2s-0.3,0.4-0.3,0.7c0,0.6,0.4,0.9,1.2,0.9c0.3,0,0.5,0,0.7-0.1c0.2,0,0.4-0.1,0.5-0.3
		C118.8,61.6,118.9,61.3,118.9,60.8z"/>
	<path class="st2" d="M126.8,62.4c-0.2,0.2-0.4,0.4-0.6,0.5c-0.2,0.1-0.4,0.2-0.7,0.3c-0.2,0.1-0.5,0.1-0.8,0.1
		c-0.5,0-1-0.1-1.4-0.3s-0.8-0.6-1-1.1c-0.3-0.5-0.4-1.2-0.4-1.9c0-0.6,0.1-1.1,0.2-1.5s0.4-0.8,0.6-1.1s0.6-0.5,0.9-0.6
		c0.3-0.1,0.7-0.2,1.1-0.2c0.4,0,0.8,0.1,1.2,0.2c0.3,0.1,0.6,0.4,0.9,0.7l-0.9,0.9c-0.2-0.2-0.4-0.4-0.6-0.5s-0.4-0.1-0.7-0.1
		c-0.5,0-0.9,0.2-1.2,0.6c-0.1,0.2-0.2,0.4-0.3,0.6s-0.1,0.6-0.1,1c0,0.7,0.1,1.3,0.4,1.6c0.3,0.4,0.7,0.6,1.2,0.6
		c0.2,0,0.5,0,0.7-0.1c0.2-0.1,0.4-0.3,0.6-0.5L126.8,62.4z"/>
	<path class="st2" d="M131,63.2h-0.8c-0.4,0-0.7-0.1-1-0.3s-0.5-0.4-0.6-0.7c-0.1-0.3-0.2-0.6-0.2-0.9v-3.6h-0.7v-1h0.7v-2h1.3v2
		h1.2v1h-1.2v3.6c0,0.5,0.2,0.8,0.7,0.8h0.5L131,63.2L131,63.2z"/>
	<path class="st2" d="M137.7,63.2h-1.3v-0.7c-0.2,0.2-0.5,0.4-0.8,0.5s-0.6,0.2-0.9,0.2c-0.6,0-1.2-0.2-1.6-0.6
		c-0.2-0.2-0.4-0.5-0.5-0.8c-0.1-0.3-0.1-0.7-0.1-1v-4.2h1.3v4c0,0.5,0.1,0.9,0.4,1.1c0.2,0.2,0.5,0.4,0.9,0.4
		c0.4,0,0.7-0.1,0.9-0.4c0.2-0.2,0.4-0.6,0.4-1.1v-4h1.3L137.7,63.2L137.7,63.2z"/>
	<path class="st2" d="M144.2,57.2l-1,1c-0.1-0.2-0.3-0.3-0.4-0.3s-0.3-0.1-0.5-0.1c-0.2,0-0.4,0.1-0.6,0.2c-0.2,0.1-0.4,0.3-0.5,0.5
		c-0.1,0.2-0.2,0.5-0.2,0.8v4h-1.3v-6.6h1.3v0.7c0.2-0.2,0.4-0.4,0.7-0.6c0.3-0.1,0.6-0.2,1-0.2c0.3,0,0.6,0,0.8,0.1
		C143.8,56.8,144,57,144.2,57.2z"/>
	<path class="st2" d="M146.6,55.3h-1.4v-1.4h1.4V55.3z M146.5,63.2h-1.3v-6.6h1.3V63.2z"/>
	<path class="st2" d="M153.8,63.2h-1.3v-4c0-0.3-0.1-0.6-0.2-0.8c-0.1-0.2-0.3-0.4-0.5-0.5c-0.2-0.1-0.4-0.2-0.7-0.2
		c-0.4,0-0.7,0.1-0.9,0.4c-0.2,0.2-0.4,0.6-0.4,1.1v4h-1.3v-6.6h1.3v0.7c0.2-0.2,0.5-0.4,0.8-0.6c0.3-0.1,0.6-0.2,0.9-0.2
		c0.7,0,1.2,0.2,1.6,0.6c0.4,0.4,0.6,1,0.6,1.9L153.8,63.2L153.8,63.2z"/>
	<path class="st2" d="M160.6,63.2c0,0.5-0.1,1-0.3,1.4s-0.5,0.7-0.9,1c-0.4,0.2-0.9,0.4-1.5,0.4c-0.3,0-0.6,0-0.9-0.1
		c-0.3-0.1-0.5-0.2-0.7-0.3c-0.2-0.1-0.4-0.3-0.7-0.5l0.8-0.8c0.2,0.2,0.4,0.4,0.6,0.4c0.2,0.1,0.4,0.1,0.7,0.1
		c0.5,0,0.9-0.2,1.1-0.5s0.4-0.7,0.4-1.2v-0.8c-0.2,0.3-0.5,0.5-0.7,0.6s-0.6,0.2-0.9,0.2c-0.3,0-0.6-0.1-0.9-0.2
		c-0.3-0.1-0.5-0.2-0.7-0.4c-0.3-0.3-0.5-0.7-0.6-1.1c-0.1-0.4-0.1-1-0.1-1.6c0-0.6,0-1.2,0.1-1.6c0.1-0.4,0.3-0.8,0.6-1.1
		c0.2-0.2,0.4-0.3,0.7-0.4c0.3-0.1,0.6-0.1,0.9-0.1c0.4,0,0.7,0.1,0.9,0.2c0.3,0.1,0.5,0.3,0.7,0.6v-0.7h1.2V63.2z M159.3,59.8
		c0-0.6-0.1-1.1-0.3-1.5c-0.2-0.4-0.5-0.6-1-0.6c-0.5,0-0.9,0.2-1,0.6c-0.2,0.4-0.3,0.9-0.3,1.5s0.1,1.1,0.3,1.5
		c0.2,0.4,0.5,0.6,1,0.6c0.5,0,0.9-0.2,1-0.6C159.2,60.9,159.3,60.4,159.3,59.8z"/>
	<path class="st2" d="M170.7,60.3h-4.1c0,0.4,0.1,0.7,0.2,1s0.3,0.5,0.6,0.6c0.2,0.2,0.5,0.2,0.9,0.2c0.4,0,0.6-0.1,0.9-0.2
		s0.4-0.3,0.7-0.5l0.8,0.8c-0.3,0.4-0.7,0.6-1.1,0.8c-0.4,0.2-0.8,0.2-1.3,0.2c-0.4,0-0.8-0.1-1.1-0.2s-0.7-0.3-0.9-0.6
		c-0.3-0.3-0.5-0.6-0.6-1s-0.2-1-0.2-1.6c0-0.7,0.1-1.3,0.3-1.8s0.5-0.9,0.9-1.2s0.9-0.4,1.4-0.4c0.6,0,1,0.1,1.5,0.4
		s0.7,0.6,0.9,1.1c0.2,0.5,0.3,1,0.3,1.7L170.7,60.3L170.7,60.3z M169.5,59.4c0-0.3-0.1-0.6-0.2-0.9s-0.3-0.5-0.5-0.6
		s-0.5-0.2-0.8-0.2c-0.3,0-0.6,0.1-0.8,0.2c-0.2,0.2-0.4,0.4-0.5,0.6c-0.1,0.1-0.1,0.3-0.1,0.4c0,0.1,0,0.3-0.1,0.5H169.5z"/>
	<path class="st2" d="M177.5,63.2h-1.5l-1.3-2.2l-1.3,2.2h-1.5l2.2-3.4l-2.1-3.2h1.5l1.3,2.1l1.2-2.1h1.5l-2.1,3.2L177.5,63.2z"/>
	<path class="st2" d="M184,59.9c0,0.4,0,0.8-0.1,1.1c0,0.3-0.1,0.6-0.2,0.9s-0.3,0.6-0.5,0.8c-0.2,0.2-0.4,0.3-0.7,0.4
		s-0.6,0.2-0.9,0.2c-0.4,0-0.7-0.1-0.9-0.2c-0.3-0.1-0.5-0.3-0.7-0.6v3.3h-1.3v-9.3h1.3v0.7c0.2-0.3,0.5-0.5,0.7-0.6
		c0.3-0.1,0.6-0.2,0.9-0.2c0.3,0,0.6,0.1,0.9,0.2s0.5,0.2,0.7,0.4c0.2,0.2,0.3,0.5,0.5,0.8c0.1,0.3,0.2,0.6,0.2,0.9
		C184,59.1,184,59.5,184,59.9z M182.7,59.9c0-0.4,0-0.8-0.1-1.1c-0.1-0.3-0.2-0.6-0.4-0.8c-0.2-0.2-0.5-0.3-0.8-0.3
		c-0.4,0-0.6,0.1-0.8,0.3s-0.3,0.4-0.4,0.8s-0.1,0.7-0.1,1.1c0,0.4,0,0.8,0.1,1.1c0.1,0.3,0.2,0.6,0.4,0.8c0.2,0.2,0.5,0.3,0.8,0.3
		c0.5,0,0.9-0.2,1.1-0.6C182.6,61.2,182.7,60.6,182.7,59.9z"/>
	<path class="st2" d="M190.8,60.3h-4.1c0,0.4,0.1,0.7,0.2,1s0.3,0.5,0.6,0.6c0.2,0.2,0.5,0.2,0.9,0.2c0.4,0,0.6-0.1,0.9-0.2
		s0.4-0.3,0.7-0.5l0.8,0.8c-0.3,0.4-0.7,0.6-1.1,0.8c-0.4,0.2-0.8,0.2-1.3,0.2c-0.4,0-0.8-0.1-1.1-0.2s-0.7-0.3-0.9-0.6
		c-0.3-0.3-0.5-0.6-0.6-1s-0.2-1-0.2-1.6c0-0.7,0.1-1.3,0.3-1.8s0.5-0.9,0.9-1.2s0.9-0.4,1.4-0.4c0.6,0,1,0.1,1.5,0.4
		s0.7,0.6,0.9,1.1c0.2,0.5,0.3,1,0.3,1.7L190.8,60.3L190.8,60.3z M189.5,59.4c0-0.3-0.1-0.6-0.2-0.9s-0.3-0.5-0.5-0.6
		s-0.5-0.2-0.8-0.2c-0.3,0-0.6,0.1-0.8,0.2c-0.2,0.2-0.4,0.4-0.5,0.6c-0.1,0.1-0.1,0.3-0.1,0.4c0,0.1,0,0.3-0.1,0.5H189.5z"/>
	<path class="st2" d="M197,57.2l-1,1c-0.1-0.2-0.3-0.3-0.4-0.3s-0.3-0.1-0.5-0.1c-0.2,0-0.4,0.1-0.6,0.2c-0.2,0.1-0.4,0.3-0.5,0.5
		c-0.1,0.2-0.2,0.5-0.2,0.8v4h-1.3v-6.6h1.3v0.7c0.2-0.2,0.4-0.4,0.7-0.6c0.3-0.1,0.6-0.2,1-0.2c0.3,0,0.6,0,0.8,0.1
		C196.5,56.8,196.8,57,197,57.2z"/>
	<path class="st2" d="M200.7,63.2h-0.8c-0.4,0-0.7-0.1-1-0.3s-0.5-0.4-0.6-0.7c-0.1-0.3-0.2-0.6-0.2-0.9v-3.6h-0.7v-1h0.7v-2h1.3v2
		h1.2v1h-1.2v3.6c0,0.5,0.2,0.8,0.7,0.8h0.5L200.7,63.2L200.7,63.2z"/>
	<path class="st2" d="M203.7,55.3h-1.4v-1.4h1.4V55.3z M203.6,63.2h-1.3v-6.6h1.3V63.2z"/>
	<path class="st2" d="M210.4,61.2c0,0.4-0.1,0.8-0.3,1.1s-0.5,0.5-0.9,0.7s-0.9,0.2-1.4,0.2c-0.4,0-0.7,0-1-0.1s-0.6-0.2-0.9-0.3
		s-0.5-0.3-0.8-0.6l0.8-0.9c0.4,0.5,1,0.7,1.8,0.7c0.3,0,0.5,0,0.7-0.1c0.2-0.1,0.4-0.2,0.5-0.3s0.2-0.3,0.2-0.5
		c0-0.5-0.3-0.7-0.9-0.8l-1-0.1c-0.4,0-0.8-0.1-1-0.3c-0.3-0.1-0.5-0.3-0.6-0.6c-0.1-0.3-0.2-0.6-0.2-1c0-0.6,0.2-1.1,0.7-1.5
		c0.5-0.4,1-0.5,1.7-0.5c1,0,1.8,0.2,2.4,0.7l-0.8,0.8c-0.4-0.3-0.9-0.5-1.6-0.5c-0.4,0-0.7,0.1-0.9,0.2c-0.2,0.2-0.3,0.4-0.3,0.6
		c0,0.4,0.3,0.7,0.9,0.7l1,0.1c0.4,0,0.7,0.1,1,0.3c0.3,0.1,0.5,0.3,0.7,0.6S210.4,60.8,210.4,61.2z"/>
	<path class="st2" d="M217,60.3h-4.1c0,0.4,0.1,0.7,0.2,1s0.3,0.5,0.6,0.6c0.2,0.2,0.5,0.2,0.9,0.2c0.4,0,0.6-0.1,0.9-0.2
		s0.4-0.3,0.7-0.5l0.8,0.8c-0.3,0.4-0.7,0.6-1.1,0.8c-0.4,0.2-0.8,0.2-1.3,0.2c-0.4,0-0.8-0.1-1.1-0.2s-0.7-0.3-0.9-0.6
		c-0.3-0.3-0.5-0.6-0.6-1s-0.2-1-0.2-1.6c0-0.7,0.1-1.3,0.3-1.8s0.5-0.9,0.9-1.2s0.9-0.4,1.4-0.4c0.6,0,1,0.1,1.5,0.4
		s0.7,0.6,0.9,1.1c0.2,0.5,0.3,1,0.3,1.7L217,60.3L217,60.3z M215.8,59.4c0-0.3-0.1-0.6-0.2-0.9s-0.3-0.5-0.5-0.6s-0.5-0.2-0.8-0.2
		c-0.3,0-0.6,0.1-0.8,0.2c-0.2,0.2-0.4,0.4-0.5,0.6c-0.1,0.1-0.1,0.3-0.1,0.4c0,0.1,0,0.3-0.1,0.5H215.8z"/>
</g>
</svg>
